<svg xmlns="http://www.w3.org/2000/svg" xmlns:xlink="http://www.w3.org/1999/xlink" width="500" zoomAndPan="magnify" viewBox="0 0 375 374.999991" height="500" preserveAspectRatio="xMidYMid meet" version="1.0"><defs><clipPath id="id1"><path d="M 0 0.03125 L 375 0.03125 L 375 375 L 0 375 Z M 0 0.03125 " clip-rule="nonzero"/></clipPath></defs><g clip-path="url(#id1)"><path fill="#91d9c1" d="M 360.722656 53.398438 L 358.761719 54.539062 L 360.859375 55.402344 L 361.335938 57.621094 L 362.804688 55.894531 L 365.0625 56.125 L 363.875 54.191406 L 364.789062 52.117188 L 362.585938 52.652344 L 360.898438 51.136719 Z M 364.351562 32.019531 L 366.128906 33.429688 L 365.976562 35.695312 L 367.863281 34.4375 L 369.96875 35.289062 L 369.363281 33.101562 L 370.816406 31.359375 L 368.550781 31.261719 L 367.347656 29.34375 L 366.554688 31.46875 Z M 367.65625 1.628906 L 365.542969 0.816406 L 366.175781 2.988281 L 364.75 4.75 L 367.015625 4.816406 L 368.246094 6.722656 L 369.011719 4.585938 L 371.199219 4 L 369.40625 2.617188 L 369.527344 0.351562 Z M 232.636719 19.984375 L 231.699219 17.917969 L 232.863281 15.972656 L 230.613281 16.230469 L 229.121094 14.519531 L 228.671875 16.742188 L 226.582031 17.628906 L 228.554688 18.746094 L 228.753906 21.007812 L 230.425781 19.476562 Z M 255.820312 21.195312 L 254.800781 19.167969 L 253.8125 21.207031 L 251.570312 21.546875 L 253.203125 23.121094 L 252.835938 25.363281 L 254.835938 24.292969 L 256.847656 25.335938 L 256.453125 23.101562 L 258.066406 21.507812 Z M 259.863281 5.425781 L 261.457031 3.808594 L 259.203125 3.527344 L 258.160156 1.511719 L 257.199219 3.566406 L 254.960938 3.941406 L 256.617188 5.488281 L 256.28125 7.738281 L 258.265625 6.640625 L 260.292969 7.652344 Z M 285.128906 21.007812 L 283.667969 19.265625 L 284.277344 17.082031 L 282.175781 17.925781 L 280.28125 16.675781 L 280.4375 18.9375 L 278.664062 20.351562 L 280.863281 20.902344 L 281.65625 23.027344 L 282.859375 21.105469 Z M 305.761719 10.375 L 306.878906 12.351562 L 305.886719 14.390625 L 308.109375 13.933594 L 309.746094 15.507812 L 310 13.253906 L 312 12.183594 L 309.933594 11.246094 L 309.535156 9.011719 L 308.007812 10.6875 Z M 315.546875 18.019531 L 313.707031 19.34375 L 315.878906 19.996094 L 316.574219 22.15625 L 317.863281 20.289062 L 320.132812 20.296875 L 318.757812 18.492188 L 319.46875 16.335938 L 317.328125 17.085938 L 315.496094 15.746094 Z M 301.648438 58.859375 L 299.503906 58.121094 L 300.226562 60.273438 L 298.863281 62.085938 L 301.128906 62.066406 L 302.429688 63.921875 L 303.113281 61.757812 L 305.28125 61.09375 L 303.433594 59.777344 L 303.472656 57.507812 Z M 330.25 61.683594 L 330.941406 63.84375 L 329.550781 65.636719 L 331.820312 65.648438 L 333.097656 67.523438 L 333.804688 65.371094 L 335.984375 64.734375 L 334.15625 63.390625 L 334.222656 61.121094 L 332.382812 62.445312 Z M 321.847656 108.085938 L 323.347656 109.792969 L 322.792969 111.992188 L 324.878906 111.09375 L 326.796875 112.300781 L 326.585938 110.042969 L 328.328125 108.585938 L 326.113281 108.089844 L 325.269531 105.984375 L 324.113281 107.9375 Z M 359.1875 87.847656 L 357.492188 89.359375 L 359.71875 89.785156 L 360.625 91.867188 L 361.722656 89.878906 L 363.980469 89.660156 L 362.429688 88 L 362.917969 85.78125 L 360.863281 86.746094 L 358.90625 85.601562 Z M 92.453125 17.652344 L 91.613281 15.542969 L 92.871094 13.65625 L 90.609375 13.804688 L 89.203125 12.019531 L 88.644531 14.222656 L 86.515625 15.003906 L 88.433594 16.214844 L 88.523438 18.484375 L 90.269531 17.035156 Z M 125.28125 13.542969 L 124.292969 15.585938 L 126.511719 15.128906 L 128.148438 16.703125 L 128.398438 14.445312 L 130.398438 13.378906 L 128.335938 12.4375 L 127.9375 10.203125 L 126.40625 11.878906 L 124.160156 11.570312 Z M 134.441406 30.832031 L 136.710938 30.894531 L 135.382812 29.054688 L 136.144531 26.914062 L 133.984375 27.613281 L 132.183594 26.230469 L 132.183594 28.5 L 130.3125 29.78125 L 132.464844 30.488281 L 133.109375 32.664062 Z M 137.109375 43.832031 L 135.546875 42.191406 L 135.195312 44.433594 L 133.152344 45.417969 L 135.171875 46.441406 L 135.472656 48.691406 L 137.078125 47.085938 L 139.304688 47.488281 L 138.269531 45.472656 L 139.347656 43.472656 Z M 167.929688 27.738281 L 166.164062 29.164062 L 168.367188 29.699219 L 169.171875 31.824219 L 170.363281 29.894531 L 172.628906 29.78125 L 171.164062 28.050781 L 171.757812 25.859375 L 169.660156 26.71875 L 167.761719 25.476562 Z M 175.609375 71.925781 L 173.394531 71.445312 L 172.53125 69.347656 L 171.390625 71.308594 L 169.128906 71.480469 L 170.640625 73.171875 L 170.105469 75.375 L 172.179688 74.460938 L 174.113281 75.652344 L 173.878906 73.394531 Z M 213.863281 35.476562 L 211.871094 34.394531 L 212.222656 36.640625 L 210.582031 38.203125 L 212.820312 38.554688 L 213.800781 40.601562 L 214.828125 38.582031 L 217.074219 38.28125 L 215.472656 36.679688 L 215.882812 34.449219 Z M 239.394531 60.28125 L 241.320312 59.089844 L 239.199219 58.285156 L 238.660156 56.078125 L 237.238281 57.847656 L 234.976562 57.679688 L 236.222656 59.582031 L 235.363281 61.679688 L 237.550781 61.082031 L 239.28125 62.550781 Z M 242.363281 70.878906 L 240.375 71.972656 L 242.449219 72.890625 L 242.871094 75.117188 L 244.382812 73.425781 L 246.632812 73.714844 L 245.496094 71.753906 L 246.460938 69.703125 L 244.246094 70.183594 L 242.59375 68.625 Z M 264.453125 87.285156 L 266.484375 86.277344 L 264.449219 85.277344 L 264.117188 83.035156 L 262.539062 84.660156 L 260.304688 84.28125 L 261.363281 86.289062 L 260.3125 88.296875 L 262.546875 87.910156 L 264.132812 89.53125 Z M 277.648438 84.234375 L 275.890625 85.671875 L 278.097656 86.195312 L 278.921875 88.308594 L 280.097656 86.367188 L 282.359375 86.238281 L 280.882812 84.519531 L 281.460938 82.324219 L 279.367188 83.203125 L 277.460938 81.972656 Z M 260.140625 116.277344 L 258.273438 117.570312 L 260.433594 118.265625 L 261.085938 120.441406 L 262.414062 118.605469 L 264.679688 118.65625 L 263.34375 116.824219 L 264.097656 114.683594 L 261.9375 115.386719 L 260.136719 114.007812 Z M 280.0625 121.988281 L 281.691406 123.570312 L 281.3125 125.804688 L 283.316406 124.75 L 285.328125 125.800781 L 284.9375 123.5625 L 286.558594 121.976562 L 284.316406 121.652344 L 283.308594 119.621094 L 282.308594 121.65625 Z M 291.917969 143.726562 L 290.035156 144.992188 L 292.1875 145.71875 L 292.804688 147.902344 L 294.160156 146.078125 L 296.425781 146.164062 L 295.113281 144.3125 L 295.894531 142.179688 L 293.730469 142.855469 L 291.945312 141.460938 Z M 299.800781 40.78125 L 301.609375 42.152344 L 301.507812 44.421875 L 303.367188 43.128906 L 305.492188 43.925781 L 304.832031 41.753906 L 306.246094 39.980469 L 303.984375 39.933594 L 302.734375 38.039062 L 301.988281 40.183594 Z M 343.84375 149.261719 L 344.519531 151.425781 L 343.121094 153.210938 L 345.386719 153.238281 L 346.648438 155.121094 L 347.378906 152.972656 L 349.558594 152.347656 L 347.738281 150.992188 L 347.820312 148.726562 L 345.972656 150.039062 Z M 301.914062 171.949219 L 299.910156 173.015625 L 301.96875 173.957031 L 302.359375 176.195312 L 303.898438 174.523438 L 306.144531 174.84375 L 305.03125 172.863281 L 306.027344 170.824219 L 303.804688 171.273438 L 302.175781 169.695312 Z M 346.011719 197.820312 L 347.71875 199.316406 L 347.457031 201.570312 L 349.402344 200.40625 L 351.464844 201.355469 L 350.960938 199.144531 L 352.496094 197.472656 L 350.238281 197.269531 L 349.125 195.292969 L 348.234375 197.378906 Z M 342.523438 115.191406 L 344.070312 116.847656 L 343.585938 119.0625 L 345.636719 118.101562 L 347.597656 119.246094 L 347.316406 116.996094 L 349.007812 115.488281 L 346.785156 115.0625 L 345.875 112.980469 L 344.777344 114.96875 Z M 352.949219 135.09375 L 351.03125 136.308594 L 353.164062 137.085938 L 353.730469 139.285156 L 355.128906 137.5 L 357.394531 137.640625 L 356.125 135.753906 L 356.957031 133.644531 L 354.777344 134.265625 L 353.027344 132.824219 Z M 370.640625 292.148438 L 371.929688 294.015625 L 371.125 296.136719 L 373.296875 295.484375 L 375.0625 296.910156 L 375.117188 294.640625 L 377.015625 293.398438 L 374.878906 292.648438 L 374.285156 290.457031 L 372.90625 292.257812 Z M 359.707031 274.3125 L 357.894531 275.675781 L 360.082031 276.28125 L 360.820312 278.429688 L 362.074219 276.539062 L 364.339844 276.5 L 362.929688 274.722656 L 363.59375 272.550781 L 361.46875 273.34375 L 359.609375 272.042969 Z M 367.699219 253.144531 L 368.652344 255.203125 L 367.503906 257.160156 L 369.753906 256.886719 L 371.253906 258.585938 L 371.6875 256.359375 L 373.769531 255.453125 L 371.785156 254.351562 L 371.570312 252.089844 L 369.910156 253.640625 Z M 325.878906 251.296875 L 326.4375 253.496094 L 324.941406 255.203125 L 327.207031 255.351562 L 328.371094 257.300781 L 329.207031 255.191406 L 331.421875 254.6875 L 329.675781 253.238281 L 329.878906 250.976562 L 327.964844 252.191406 Z M 311.074219 257.273438 L 313.183594 256.445312 L 311.242188 255.273438 L 311.105469 253.007812 L 309.390625 254.492188 L 307.195312 253.921875 L 308.078125 256.011719 L 306.859375 257.921875 L 309.117188 257.730469 L 310.558594 259.484375 Z M 319.988281 224.390625 L 318.863281 222.417969 L 319.847656 220.375 L 317.628906 220.835938 L 315.992188 219.265625 L 315.742188 221.523438 L 313.746094 222.597656 L 315.8125 223.527344 L 316.21875 225.761719 L 317.742188 224.082031 Z M 288.714844 217.910156 L 286.8125 219.148438 L 288.949219 219.902344 L 289.535156 222.097656 L 290.921875 220.300781 L 293.183594 220.417969 L 291.898438 218.546875 L 292.714844 216.425781 L 290.539062 217.070312 L 288.777344 215.644531 Z M 286.160156 190.03125 L 287.617188 191.769531 L 287.015625 193.957031 L 289.117188 193.105469 L 291.007812 194.359375 L 290.851562 192.09375 L 292.625 190.679688 L 290.425781 190.128906 L 289.628906 188.007812 L 288.425781 189.929688 Z M 269.367188 175.832031 L 268.234375 173.867188 L 269.210938 171.820312 L 266.992188 172.289062 L 265.347656 170.726562 L 265.109375 172.984375 L 263.113281 174.066406 L 265.1875 174.992188 L 265.601562 177.222656 L 267.117188 175.539062 Z M 282.496094 152.816406 L 280.511719 153.921875 L 278.480469 152.917969 L 278.921875 155.144531 L 277.335938 156.765625 L 279.585938 157.039062 L 280.644531 159.046875 L 281.59375 156.984375 L 283.828125 156.601562 L 282.167969 155.0625 Z M 233.816406 146.042969 L 235.898438 145.152344 L 233.925781 144.039062 L 233.71875 141.78125 L 232.050781 143.316406 L 229.839844 142.8125 L 230.785156 144.875 L 229.621094 146.824219 L 231.875 146.558594 L 233.367188 148.269531 Z M 225.695312 134.046875 L 224.433594 132.160156 L 225.273438 130.050781 L 223.089844 130.667969 L 221.34375 129.21875 L 221.253906 131.488281 L 219.339844 132.699219 L 221.46875 133.484375 L 222.027344 135.683594 L 223.429688 133.902344 Z M 220.917969 94.4375 L 218.976562 95.609375 L 221.089844 96.441406 L 221.605469 98.652344 L 223.042969 96.898438 L 225.304688 97.089844 L 224.082031 95.179688 L 224.964844 93.085938 L 222.769531 93.65625 L 221.054688 92.175781 Z M 174.664062 116.023438 L 172.632812 117.03125 L 174.667969 118.03125 L 174.996094 120.277344 L 176.578125 118.648438 L 178.8125 119.03125 L 177.757812 117.023438 L 178.808594 115.015625 L 176.574219 115.402344 L 174.984375 113.777344 Z M 154.707031 83.582031 L 156.609375 84.820312 L 156.667969 87.085938 L 158.429688 85.660156 L 160.609375 86.304688 L 159.796875 84.1875 L 161.082031 82.316406 L 158.816406 82.433594 L 157.4375 80.632812 L 156.84375 82.824219 Z M 156.042969 74.402344 L 155.832031 72.140625 L 154.167969 73.683594 L 151.953125 73.183594 L 152.902344 75.242188 L 151.746094 77.191406 L 153.996094 76.925781 L 155.496094 78.632812 L 155.9375 76.40625 L 158.019531 75.511719 Z M 144.46875 50.328125 L 146.285156 51.6875 L 146.199219 53.957031 L 148.046875 52.648438 L 150.175781 53.433594 L 149.507812 51.265625 L 150.910156 49.484375 L 148.640625 49.453125 L 147.378906 47.566406 L 146.652344 49.714844 Z M 98.972656 67.464844 L 100.996094 66.449219 L 98.957031 65.457031 L 98.621094 63.214844 L 97.046875 64.847656 L 94.8125 64.472656 L 95.875 66.480469 L 94.832031 68.492188 L 97.066406 68.097656 L 98.65625 69.714844 Z M 109.542969 45.300781 L 108.921875 43.121094 L 110.367188 41.371094 L 108.097656 41.289062 L 106.886719 39.371094 L 106.105469 41.503906 L 103.910156 42.070312 L 105.695312 43.46875 L 105.550781 45.734375 L 107.433594 44.46875 Z M 343.117188 303.820312 L 344.925781 305.1875 L 344.832031 307.453125 L 346.6875 306.148438 L 348.8125 306.941406 L 348.152344 304.773438 L 349.5625 302.996094 L 347.292969 302.957031 L 346.039062 301.066406 L 345.300781 303.210938 Z M 64.363281 16.1875 L 66.398438 15.179688 L 64.363281 14.179688 L 64.039062 11.933594 L 62.457031 13.554688 L 60.21875 13.171875 L 61.273438 15.179688 L 60.21875 17.1875 L 62.457031 16.808594 L 64.039062 18.433594 Z M 174.203125 244.96875 L 172.03125 245.625 L 173.871094 246.953125 L 173.816406 249.222656 L 175.648438 247.878906 L 177.789062 248.628906 L 177.082031 246.472656 L 178.453125 244.667969 L 176.1875 244.675781 L 174.894531 242.808594 Z M -2.539062 8.28125 L -4.75 8.78125 L -3.007812 10.234375 L -3.21875 12.492188 L -1.300781 11.285156 L 0.78125 12.183594 L 0.226562 9.984375 L 1.726562 8.277344 L -0.535156 8.128906 L -1.695312 6.175781 Z M -16.796875 36.800781 L -17.855469 34.796875 L -16.804688 32.785156 L -19.042969 33.175781 L -20.628906 31.550781 L -20.945312 33.796875 L -22.980469 34.808594 L -20.945312 35.808594 L -20.609375 38.054688 L -19.03125 36.425781 Z M 20.582031 68.191406 L 18.925781 66.640625 L 19.265625 64.394531 L 17.277344 65.488281 L 15.253906 64.472656 L 15.679688 66.703125 L 14.085938 68.316406 L 16.339844 68.601562 L 17.378906 70.617188 L 18.347656 68.5625 Z M 63.210938 50.589844 L 65.058594 49.277344 L 62.890625 48.609375 L 62.210938 46.445312 L 60.910156 48.300781 L 58.636719 48.28125 L 60 50.09375 L 59.277344 52.242188 L 61.425781 51.507812 L 63.246094 52.859375 Z M 58.390625 82.222656 L 57.667969 80.070312 L 59.027344 78.261719 L 56.761719 78.28125 L 55.457031 76.425781 L 54.777344 78.589844 L 52.609375 79.253906 L 54.457031 80.570312 L 54.421875 82.839844 L 56.246094 81.488281 Z M 98.09375 77.835938 L 99.296875 75.914062 L 97.039062 76.125 L 95.585938 74.382812 L 95.089844 76.597656 L 92.988281 77.445312 L 94.933594 78.601562 L 95.089844 80.867188 L 96.792969 79.367188 L 98.996094 79.917969 Z M 121.167969 120.761719 L 120.050781 118.785156 L 121.039062 116.746094 L 118.820312 117.199219 L 117.183594 115.625 L 116.929688 117.882812 L 114.929688 118.953125 L 116.996094 119.890625 L 117.394531 122.125 L 118.921875 120.449219 Z M 148.941406 105.34375 L 147.109375 106.6875 L 149.292969 107.324219 L 150 109.476562 L 151.277344 107.605469 L 153.546875 107.589844 L 152.15625 105.796875 L 152.847656 103.636719 L 150.714844 104.402344 L 148.875 103.078125 Z M 103.167969 161.914062 L 104.941406 163.324219 L 104.785156 165.585938 L 106.679688 164.332031 L 108.785156 165.175781 L 108.175781 162.992188 L 109.628906 161.253906 L 107.363281 161.15625 L 106.15625 159.230469 L 105.367188 161.355469 Z M 131.238281 176.15625 L 132.269531 174.136719 L 130.039062 174.546875 L 128.433594 172.945312 L 128.136719 175.195312 L 126.117188 176.222656 L 128.160156 177.203125 L 128.515625 179.445312 L 130.082031 177.800781 L 132.320312 178.152344 Z M 229.800781 116.234375 L 227.707031 117.109375 L 229.671875 118.238281 L 229.859375 120.5 L 231.539062 118.980469 L 233.746094 119.5 L 232.816406 117.429688 L 234 115.492188 L 231.742188 115.734375 L 230.265625 114.011719 Z M 239.503906 165.652344 L 237.550781 166.808594 L 239.660156 167.652344 L 240.160156 169.867188 L 241.613281 168.121094 L 243.871094 168.332031 L 242.660156 166.410156 L 243.558594 164.324219 L 241.359375 164.882812 L 239.652344 163.386719 Z M 260.710938 129.09375 L 258.570312 129.84375 L 260.46875 131.085938 L 260.527344 133.355469 L 262.292969 131.933594 L 264.464844 132.582031 L 263.65625 130.460938 L 264.945312 128.59375 L 262.679688 128.707031 L 261.300781 126.902344 Z M 333.566406 237.765625 L 335.148438 239.390625 L 334.710938 241.613281 L 336.742188 240.613281 L 338.722656 241.71875 L 338.398438 239.472656 L 340.0625 237.929688 L 337.828125 237.550781 L 336.875 235.488281 L 335.820312 237.496094 Z M 269.207031 234.824219 L 267.128906 235.738281 L 269.113281 236.832031 L 269.34375 239.089844 L 270.996094 237.535156 L 273.210938 238.019531 L 272.246094 235.964844 L 273.390625 234.007812 L 271.140625 234.289062 L 269.628906 232.59375 Z M 227.503906 278.308594 L 225.238281 278.242188 L 226.566406 280.082031 L 225.800781 282.21875 L 227.960938 281.527344 L 229.757812 282.910156 L 229.765625 280.640625 L 231.636719 279.363281 L 229.484375 278.652344 L 228.847656 276.480469 Z M 338.144531 340.378906 L 339.875 341.847656 L 339.648438 344.105469 L 341.574219 342.914062 L 343.65625 343.824219 L 343.117188 341.621094 L 344.625 339.929688 L 342.363281 339.761719 L 341.21875 337.796875 L 340.363281 339.898438 Z M 256.046875 301.589844 L 256.722656 303.753906 L 255.316406 305.539062 L 257.585938 305.566406 L 258.847656 307.457031 L 259.578125 305.308594 L 261.757812 304.6875 L 259.941406 303.332031 L 260.027344 301.066406 L 258.175781 302.375 Z M 299.046875 319.253906 L 299.445312 321.484375 L 297.832031 323.078125 L 300.078125 323.390625 L 301.089844 325.417969 L 302.082031 323.378906 L 304.324219 323.039062 L 302.691406 321.464844 L 303.0625 319.226562 L 301.058594 320.296875 Z M 244.71875 343.832031 L 242.527344 343.246094 L 243.398438 345.34375 L 242.164062 347.246094 L 244.425781 347.066406 L 245.855469 348.832031 L 246.382812 346.625 L 248.5 345.808594 L 246.566406 344.625 L 246.445312 342.359375 Z M 340.277344 221.519531 L 338.269531 222.578125 L 340.328125 223.527344 L 340.71875 225.765625 L 342.253906 224.097656 L 344.5 224.417969 L 343.390625 222.441406 L 344.390625 220.402344 L 342.167969 220.847656 L 340.542969 219.265625 Z M 330.113281 378.550781 L 328.074219 379.539062 L 330.101562 380.558594 L 330.410156 382.808594 L 332.003906 381.191406 L 334.238281 381.59375 L 333.199219 379.574219 L 334.265625 377.574219 L 332.03125 377.941406 L 330.457031 376.308594 Z M 364.878906 353.847656 L 365.859375 351.800781 L 366.886719 353.828125 L 369.132812 354.128906 L 367.523438 355.730469 L 367.933594 357.964844 L 365.914062 356.929688 L 363.917969 358.003906 L 364.277344 355.765625 L 362.636719 354.199219 L 364.878906 353.847656 " fill-opacity="1" fill-rule="nonzero"/><path fill="#1c2a50" d="M 363.773438 97.035156 L 364.472656 99.191406 L 363.089844 100.992188 L 365.359375 100.996094 L 366.640625 102.867188 L 367.347656 100.707031 L 369.519531 100.0625 L 367.683594 98.730469 L 367.742188 96.460938 L 365.910156 97.792969 Z M 325.992188 91.949219 L 324.148438 93.273438 L 326.320312 93.929688 L 327.007812 96.089844 L 328.304688 94.230469 L 330.570312 94.238281 L 329.203125 92.429688 L 329.914062 90.277344 L 327.773438 91.023438 L 325.941406 89.679688 Z M 376.003906 54.648438 L 376.914062 56.722656 L 375.722656 58.652344 L 377.976562 58.425781 L 379.441406 60.160156 L 379.925781 57.941406 L 382.023438 57.082031 L 380.066406 55.941406 L 379.898438 53.675781 L 378.207031 55.183594 Z M 362.085938 45.402344 L 360.148438 46.585938 L 362.265625 47.40625 L 362.785156 49.613281 L 364.21875 47.855469 L 366.480469 48.042969 L 365.253906 46.132812 L 366.128906 44.039062 L 363.9375 44.621094 L 362.210938 43.140625 Z M 376.464844 30.207031 L 376.941406 32.425781 L 375.382812 34.078125 L 377.636719 34.308594 L 378.726562 36.300781 L 379.644531 34.226562 L 381.875 33.804688 L 380.1875 32.289062 L 380.472656 30.039062 L 378.511719 31.179688 Z M 336.359375 1.398438 L 337.179688 3.515625 L 335.902344 5.390625 L 338.164062 5.261719 L 339.554688 7.058594 L 340.132812 4.863281 L 342.269531 4.097656 L 340.363281 2.867188 L 340.296875 0.597656 L 338.539062 2.035156 Z M 342.125 38.949219 L 343.171875 40.964844 L 342.109375 42.96875 L 344.347656 42.59375 L 345.921875 44.226562 L 346.253906 41.980469 L 348.292969 40.984375 L 346.265625 39.972656 L 345.949219 37.726562 L 344.359375 39.347656 Z M 285.144531 21.757812 L 285.707031 23.953125 L 284.21875 25.664062 L 286.480469 25.808594 L 287.648438 27.753906 L 288.480469 25.644531 L 290.691406 25.140625 L 288.945312 23.691406 L 289.144531 21.429688 L 287.230469 22.644531 Z M 267.136719 9.21875 L 268.261719 11.191406 L 267.273438 13.234375 L 269.496094 12.773438 L 271.136719 14.34375 L 271.382812 12.089844 L 273.378906 11.019531 L 271.3125 10.082031 L 270.914062 7.851562 L 269.386719 9.527344 Z M 228.847656 36.082031 L 226.832031 35.035156 L 227.226562 37.269531 L 225.617188 38.867188 L 227.859375 39.175781 L 228.878906 41.203125 L 229.867188 39.164062 L 232.109375 38.824219 L 230.476562 37.25 L 230.847656 35.011719 Z M 237.402344 26.75 L 238.6875 24.882812 L 236.421875 24.996094 L 235.046875 23.195312 L 234.457031 25.382812 L 232.316406 26.140625 L 234.21875 27.378906 L 234.273438 29.644531 L 236.039062 28.222656 L 238.210938 28.867188 Z M 275.160156 59.464844 L 276.328125 57.515625 L 274.070312 57.777344 L 272.582031 56.070312 L 272.132812 58.292969 L 270.046875 59.1875 L 272.023438 60.296875 L 272.226562 62.5625 L 273.898438 61.023438 L 276.109375 61.527344 Z M 229.484375 189.046875 L 231.636719 188.332031 L 229.761719 187.058594 L 229.746094 184.789062 L 227.957031 186.179688 L 225.792969 185.488281 L 226.5625 187.625 L 225.242188 189.46875 L 227.507812 189.398438 L 228.851562 191.226562 Z M 200.882812 111.601562 L 202.355469 113.332031 L 201.769531 115.519531 L 203.867188 114.652344 L 205.769531 115.886719 L 205.589844 113.625 L 207.351562 112.195312 L 205.144531 111.664062 L 204.332031 109.550781 L 203.148438 111.484375 Z M 191.183594 92.703125 L 189.296875 93.957031 L 187.191406 93.117188 L 187.800781 95.300781 L 186.347656 97.042969 L 188.613281 97.140625 L 189.820312 99.058594 L 190.609375 96.929688 L 192.808594 96.375 L 191.03125 94.96875 Z M 299.328125 197.941406 L 301.109375 199.347656 L 300.964844 201.609375 L 302.851562 200.347656 L 304.957031 201.1875 L 304.34375 199.003906 L 305.789062 197.257812 L 303.523438 197.167969 L 302.3125 195.253906 L 301.527344 197.382812 Z M 127.152344 67.1875 L 129.21875 66.246094 L 127.214844 65.179688 L 126.957031 62.925781 L 125.324219 64.503906 L 123.101562 64.050781 L 124.09375 66.089844 L 122.980469 68.066406 L 125.226562 67.753906 L 126.757812 69.425781 Z M 139.902344 26.5 L 138.148438 27.941406 L 140.355469 28.457031 L 141.183594 30.574219 L 142.355469 28.628906 L 144.621094 28.5 L 143.140625 26.78125 L 143.710938 24.585938 L 141.621094 25.464844 L 139.714844 24.242188 Z M 106.398438 41.820312 L 104.679688 40.339844 L 104.921875 38.082031 L 102.984375 39.261719 L 100.917969 38.332031 L 101.4375 40.542969 L 99.914062 42.222656 L 102.175781 42.410156 L 103.300781 44.378906 L 104.179688 42.285156 Z M 90.746094 34.078125 L 92.847656 33.222656 L 90.894531 32.074219 L 90.730469 29.8125 L 89.035156 31.3125 L 86.835938 30.769531 L 87.738281 32.847656 L 86.542969 34.773438 L 88.796875 34.554688 L 90.257812 36.292969 Z M 316.898438 160.246094 L 317.621094 162.394531 L 316.257812 164.210938 L 318.527344 164.191406 L 319.828125 166.046875 L 320.507812 163.882812 L 322.679688 163.210938 L 320.828125 161.894531 L 320.863281 159.628906 L 319.042969 160.980469 Z M 277.277344 183.277344 L 276.707031 181.082031 L 275.3125 182.867188 L 273.046875 182.730469 L 274.316406 184.613281 L 273.484375 186.722656 L 275.664062 186.101562 L 277.417969 187.539062 L 277.496094 185.273438 L 279.40625 184.054688 Z M 266.636719 184.839844 L 264.601562 185.832031 L 262.628906 184.714844 L 262.941406 186.964844 L 261.269531 188.496094 L 263.503906 188.890625 L 264.441406 190.957031 L 265.507812 188.953125 L 267.761719 188.695312 L 266.1875 187.0625 Z M 260.042969 159.332031 L 260.941406 161.414062 L 259.734375 163.339844 L 261.996094 163.125 L 263.445312 164.867188 L 263.945312 162.652344 L 266.050781 161.808594 L 264.097656 160.652344 L 263.945312 158.390625 L 262.242188 159.886719 Z M 249.191406 137.984375 L 249.804688 140.167969 L 248.355469 141.914062 L 250.625 142 L 251.835938 143.921875 L 252.617188 141.792969 L 254.820312 141.230469 L 253.035156 139.828125 L 253.1875 137.5625 L 251.296875 138.824219 Z M 258.722656 106.625 L 260.066406 108.453125 L 260.695312 106.269531 L 262.847656 105.554688 L 260.96875 104.28125 L 260.953125 102.011719 L 259.164062 103.40625 L 257 102.71875 L 257.773438 104.855469 L 256.453125 106.699219 Z M 247.410156 84.003906 L 245.332031 84.914062 L 247.316406 86.011719 L 247.542969 88.269531 L 249.195312 86.71875 L 251.410156 87.203125 L 250.449219 85.148438 L 251.59375 83.191406 L 249.347656 83.472656 L 247.839844 81.777344 Z M 361.109375 167.304688 L 362.902344 168.695312 L 362.765625 170.964844 L 364.644531 169.691406 L 366.753906 170.519531 L 366.128906 168.339844 L 367.566406 166.585938 L 365.300781 166.507812 L 364.078125 164.597656 L 363.304688 166.730469 Z M 222.40625 68.871094 L 222.089844 71.117188 L 220.0625 72.132812 L 222.101562 73.128906 L 222.441406 75.375 L 224.011719 73.738281 L 226.25 74.109375 L 225.183594 72.105469 L 226.230469 70.09375 L 223.996094 70.488281 Z M 199.484375 63.183594 L 197.644531 64.515625 L 199.816406 65.167969 L 200.511719 67.324219 L 201.804688 65.460938 L 204.070312 65.46875 L 202.699219 63.664062 L 203.40625 61.507812 L 201.265625 62.257812 L 199.433594 60.914062 Z M 269.105469 208.085938 L 270.511719 209.867188 L 269.84375 212.039062 L 271.96875 211.25 L 273.824219 212.554688 L 273.730469 210.289062 L 275.546875 208.925781 L 273.363281 208.3125 L 272.628906 206.167969 L 271.375 208.054688 Z M 312.792969 231.703125 L 310.769531 232.730469 L 312.8125 233.710938 L 313.164062 235.953125 L 314.730469 234.3125 L 316.96875 234.671875 L 315.894531 232.675781 L 316.929688 230.65625 L 314.695312 231.0625 L 313.097656 229.453125 Z M 192.300781 30.875 L 190.695312 32.480469 L 192.945312 32.78125 L 193.972656 34.800781 L 194.953125 32.757812 L 197.191406 32.40625 L 195.550781 30.839844 L 195.90625 28.597656 L 193.914062 29.679688 L 191.894531 28.644531 Z M 192.941406 5.414062 L 191.523438 3.640625 L 190.984375 5.847656 L 188.863281 6.644531 L 190.785156 7.84375 L 190.890625 10.109375 L 192.625 8.648438 L 194.8125 9.25 L 193.957031 7.144531 L 195.207031 5.25 Z M 167.425781 9.792969 L 166.738281 7.632812 L 168.125 5.835938 L 165.855469 5.828125 L 164.578125 3.953125 L 163.863281 6.105469 L 161.6875 6.742188 L 163.519531 8.085938 L 163.449219 10.355469 L 165.289062 9.03125 Z M 157.226562 4.261719 L 159.21875 3.175781 L 157.140625 2.257812 L 156.726562 0.0273438 L 155.210938 1.714844 L 152.960938 1.425781 L 154.097656 3.390625 L 153.128906 5.4375 L 155.34375 4.964844 L 156.996094 6.523438 Z M 177.699219 45.355469 L 179.644531 44.191406 L 177.539062 43.347656 L 177.035156 41.140625 L 175.585938 42.882812 L 173.328125 42.675781 L 174.539062 44.597656 L 173.644531 46.683594 L 175.84375 46.121094 L 177.546875 47.617188 Z M 114.527344 29.628906 L 116.730469 30.167969 L 115.816406 28.089844 L 117.007812 26.160156 L 114.753906 26.386719 L 113.289062 24.65625 L 112.804688 26.875 L 110.707031 27.730469 L 112.664062 28.875 L 112.832031 31.136719 Z M 239.210938 262.496094 L 241.238281 261.484375 L 239.203125 260.488281 L 238.871094 258.242188 L 237.292969 259.871094 L 235.054688 259.496094 L 236.121094 261.5 L 235.070312 263.511719 L 237.304688 263.121094 L 238.890625 264.742188 Z M 357.074219 372.054688 L 355.042969 373.066406 L 357.082031 374.0625 L 357.417969 376.308594 L 358.996094 374.675781 L 361.230469 375.050781 L 360.167969 373.042969 L 361.214844 371.035156 L 358.980469 371.425781 L 357.390625 369.808594 Z M 361.4375 333.257812 L 359.324219 334.089844 L 361.265625 335.261719 L 361.398438 337.527344 L 363.117188 336.042969 L 365.308594 336.613281 L 364.429688 334.523438 L 365.648438 332.609375 L 363.390625 332.800781 L 361.949219 331.050781 Z M 346.394531 317.777344 L 344.289062 318.617188 L 346.234375 319.777344 L 346.382812 322.039062 L 348.089844 320.546875 L 350.289062 321.109375 L 349.398438 319.023438 L 350.609375 317.105469 L 348.351562 317.308594 L 346.902344 315.5625 Z M 306.253906 360.144531 L 307.777344 361.824219 L 307.257812 364.03125 L 309.324219 363.105469 L 311.261719 364.285156 L 311.019531 362.027344 L 312.738281 360.550781 L 310.519531 360.082031 L 309.644531 357.988281 L 308.515625 359.957031 Z M 353.863281 275.867188 L 355.238281 277.671875 L 354.539062 279.828125 L 356.679688 279.074219 L 358.511719 280.40625 L 358.453125 278.140625 L 360.289062 276.804688 L 358.113281 276.160156 L 357.414062 274 L 356.128906 275.867188 Z M 349.066406 248.144531 L 350.574219 249.839844 L 350.039062 252.042969 L 352.117188 251.128906 L 354.042969 252.320312 L 353.816406 250.0625 L 355.546875 248.59375 L 353.328125 248.113281 L 352.46875 246.015625 L 351.328125 247.972656 Z M 364.867188 219.964844 L 362.855469 221.007812 L 364.910156 221.972656 L 365.285156 224.207031 L 366.832031 222.550781 L 369.074219 222.886719 L 367.980469 220.902344 L 368.992188 218.871094 L 366.765625 219.304688 L 365.144531 217.710938 Z M 341.820312 197.800781 L 342.652344 199.910156 L 341.382812 201.796875 L 343.648438 201.660156 L 345.042969 203.445312 L 345.613281 201.246094 L 347.742188 200.46875 L 345.832031 199.253906 L 345.753906 196.984375 L 344.003906 198.425781 Z M 315.664062 179.546875 L 316.484375 181.664062 L 315.207031 183.539062 L 317.464844 183.414062 L 318.855469 185.207031 L 319.4375 183.015625 L 321.570312 182.253906 L 319.667969 181.019531 L 319.601562 178.753906 L 317.84375 180.183594 Z M 330.9375 162.871094 L 332.636719 164.375 L 332.367188 166.628906 L 334.316406 165.472656 L 336.378906 166.425781 L 335.882812 164.210938 L 337.425781 162.550781 L 335.167969 162.332031 L 334.0625 160.351562 L 333.164062 162.433594 Z M 321.839844 132.914062 L 323.476562 134.484375 L 323.117188 136.726562 L 325.113281 135.652344 L 327.128906 136.6875 L 326.722656 134.457031 L 328.335938 132.859375 L 326.089844 132.550781 L 325.066406 130.523438 L 324.082031 132.570312 Z M 283.644531 131.460938 L 285.488281 132.773438 L 285.457031 135.042969 L 287.277344 133.6875 L 289.425781 134.421875 L 288.699219 132.273438 L 290.058594 130.457031 L 287.792969 130.480469 L 286.484375 128.625 L 285.808594 130.792969 Z M 285.875 114.535156 L 287.566406 116.046875 L 287.28125 118.296875 L 289.238281 117.152344 L 291.292969 118.121094 L 290.8125 115.902344 L 292.363281 114.25 L 290.109375 114.023438 L 289.015625 112.035156 L 288.101562 114.109375 Z M 299.308594 105.394531 L 300.929688 106.988281 L 300.539062 109.21875 L 302.550781 108.171875 L 304.554688 109.234375 L 304.179688 106.996094 L 305.808594 105.417969 L 303.566406 105.085938 L 302.566406 103.046875 L 301.558594 105.078125 Z M 313.914062 72.796875 L 311.851562 73.738281 L 313.851562 74.804688 L 314.109375 77.0625 L 315.742188 75.484375 L 317.960938 75.9375 L 316.96875 73.898438 L 318.085938 71.921875 L 315.839844 72.234375 L 314.3125 70.5625 Z M 312.84375 57.292969 L 310.894531 56.132812 L 310.746094 53.871094 L 309.039062 55.363281 L 306.839844 54.804688 L 307.734375 56.894531 L 306.527344 58.8125 L 308.785156 58.605469 L 310.238281 60.347656 L 310.738281 58.132812 Z M 280.054688 32.71875 L 281.921875 34 L 281.925781 36.269531 L 283.722656 34.886719 L 285.886719 35.582031 L 285.125 33.441406 L 286.453125 31.605469 L 284.183594 31.667969 L 282.851562 29.835938 L 282.207031 32.011719 Z M -5.902344 22.160156 L -7.839844 23.335938 L -5.726562 24.160156 L -5.203125 26.367188 L -3.773438 24.609375 L -1.511719 24.796875 L -2.738281 22.890625 L -1.863281 20.792969 L -4.054688 21.371094 L -5.777344 19.890625 Z M 349.058594 65.507812 L 350.726562 67.046875 L 350.402344 69.292969 L 352.378906 68.179688 L 354.417969 69.183594 L 353.972656 66.957031 L 355.550781 65.328125 L 353.300781 65.066406 L 352.238281 63.058594 L 351.292969 65.117188 Z M 66.644531 123.558594 L 68.304688 122.011719 L 66.066406 121.632812 L 65.113281 119.578125 L 64.0625 121.589844 L 61.8125 121.867188 L 63.398438 123.484375 L 62.964844 125.710938 L 64.996094 124.703125 L 66.976562 125.804688 Z M 141.488281 95.285156 L 143.628906 94.542969 L 141.738281 93.292969 L 141.699219 91.023438 L 139.921875 92.4375 L 137.753906 91.773438 L 138.546875 93.898438 L 137.25 95.761719 L 139.515625 95.660156 L 140.882812 97.472656 Z M 124.582031 152.28125 L 122.730469 153.59375 L 124.898438 154.265625 L 125.574219 156.429688 L 126.882812 154.578125 L 129.148438 154.605469 L 127.789062 152.785156 L 128.515625 150.636719 L 126.371094 151.367188 L 124.550781 150.011719 Z M 153.542969 110.125 L 155.507812 108.992188 L 153.414062 108.121094 L 152.945312 105.898438 L 151.472656 107.625 L 149.214844 107.382812 L 150.398438 109.320312 L 149.46875 111.390625 L 151.675781 110.867188 L 153.363281 112.386719 Z M 177.117188 121.144531 L 175.242188 122.425781 L 177.398438 123.132812 L 178.03125 125.3125 L 179.371094 123.480469 L 181.640625 123.550781 L 180.316406 121.707031 L 181.082031 119.574219 L 178.921875 120.261719 L 177.125 118.875 Z M 171.851562 187.015625 L 171.199219 184.839844 L 172.621094 183.070312 L 170.355469 183.019531 L 169.113281 181.121094 L 168.363281 183.261719 L 166.171875 183.855469 L 167.976562 185.234375 L 167.867188 187.5 L 169.730469 186.207031 Z M 210.707031 143.207031 L 209.300781 141.425781 L 209.96875 139.257812 L 207.84375 140.046875 L 205.988281 138.742188 L 206.082031 141.007812 L 204.265625 142.371094 L 206.449219 142.984375 L 207.183594 145.128906 L 208.441406 143.242188 Z M 202.890625 153.902344 L 203.644531 156.042969 L 202.3125 157.875 L 204.582031 157.816406 L 205.914062 159.652344 L 206.558594 157.476562 L 208.714844 156.777344 L 206.84375 155.488281 L 206.84375 153.21875 L 205.046875 154.601562 Z M 210.117188 210.726562 L 209.222656 208.644531 L 208.113281 210.621094 L 205.855469 210.828125 L 207.394531 212.496094 L 206.890625 214.710938 L 208.953125 213.757812 L 210.902344 214.921875 L 210.636719 212.667969 L 212.34375 211.171875 Z M 272.644531 260.152344 L 274.183594 261.820312 L 273.679688 264.03125 L 275.742188 263.085938 L 277.691406 264.246094 L 277.425781 261.996094 L 279.132812 260.5 L 276.910156 260.054688 L 276.015625 257.96875 L 274.902344 259.949219 Z M 301.117188 275.964844 L 302.996094 277.230469 L 303.023438 279.5 L 304.808594 278.101562 L 306.972656 278.78125 L 306.195312 276.648438 L 307.507812 274.796875 L 305.242188 274.882812 L 303.886719 273.058594 L 303.269531 275.242188 Z M 317.027344 266.214844 L 317.433594 268.445312 L 315.828125 270.046875 L 318.074219 270.347656 L 319.101562 272.371094 L 320.082031 270.324219 L 322.324219 269.976562 L 320.679688 268.40625 L 321.039062 266.167969 L 319.046875 267.246094 Z M 333.113281 285.171875 L 331.089844 286.195312 L 333.132812 287.179688 L 333.484375 289.421875 L 335.050781 287.78125 L 337.289062 288.136719 L 336.210938 286.144531 L 337.246094 284.121094 L 335.015625 284.53125 L 333.414062 282.921875 Z M 308.367188 131.753906 L 309.300781 129.6875 L 310.371094 131.683594 L 312.628906 131.933594 L 311.058594 133.570312 L 311.519531 135.792969 L 309.476562 134.808594 L 307.503906 135.933594 L 307.8125 133.683594 L 306.132812 132.152344 L 308.367188 131.753906 " fill-opacity="1" fill-rule="nonzero"/></g><path fill="#deeee4" d="M 315.644531 280.507812 L 316.476562 282.621094 L 315.207031 284.5 L 317.46875 284.363281 L 318.867188 286.148438 L 319.4375 283.957031 L 321.570312 283.179688 L 319.65625 281.957031 L 319.578125 279.691406 L 317.824219 281.132812 Z M 329.976562 380.679688 L 330.542969 382.875 L 329.058594 384.589844 L 331.324219 384.726562 L 332.492188 386.671875 L 333.324219 384.558594 L 335.53125 384.046875 L 333.78125 382.601562 L 333.972656 380.34375 L 332.0625 381.5625 Z M 352.320312 19.367188 L 353.917969 20.980469 L 353.492188 23.210938 L 355.519531 22.191406 L 357.507812 23.285156 L 357.164062 21.042969 L 358.820312 19.488281 L 356.582031 19.117188 L 355.613281 17.066406 L 354.574219 19.082031 Z M 360.410156 312.546875 L 361.023438 314.730469 L 359.574219 316.472656 L 361.835938 316.566406 L 363.046875 318.484375 L 363.835938 316.355469 L 366.035156 315.800781 L 364.253906 314.394531 L 364.402344 312.128906 L 362.515625 313.386719 Z M 352.992188 288.835938 L 353.808594 290.953125 L 352.53125 292.828125 L 354.796875 292.703125 L 356.179688 294.5 L 356.761719 292.308594 L 358.902344 291.542969 L 356.996094 290.3125 L 356.929688 288.042969 L 355.167969 289.472656 Z M 361.90625 125.070312 L 363.527344 126.652344 L 363.144531 128.890625 L 365.148438 127.835938 L 367.15625 128.894531 L 366.777344 126.660156 L 368.402344 125.074219 L 366.15625 124.746094 L 365.15625 122.710938 L 364.152344 124.746094 Z M 318.496094 258.039062 L 320.308594 256.683594 L 318.128906 256.066406 L 317.398438 253.917969 L 316.136719 255.804688 L 313.871094 255.832031 L 315.273438 257.617188 L 314.601562 259.785156 L 316.730469 258.996094 L 318.582031 260.308594 Z M 361.929688 147.824219 L 362.339844 150.058594 L 360.734375 151.660156 L 362.980469 151.960938 L 364.007812 153.984375 L 364.988281 151.9375 L 367.226562 151.585938 L 365.585938 150.019531 L 365.941406 147.777344 L 363.949219 148.859375 Z M 284.21875 282.945312 L 282.398438 284.296875 L 280.253906 283.5625 L 280.976562 285.710938 L 279.617188 287.527344 L 281.882812 287.503906 L 283.1875 289.359375 L 283.867188 287.195312 L 286.035156 286.527344 L 284.1875 285.214844 Z M 254.65625 311.339844 L 252.515625 312.089844 L 254.410156 313.335938 L 254.460938 315.601562 L 256.226562 314.183594 L 258.402344 314.835938 L 257.597656 312.714844 L 258.890625 310.851562 L 256.625 310.957031 L 255.253906 309.152344 Z M 311.078125 292.675781 L 310.746094 290.433594 L 309.164062 292.058594 L 306.929688 291.679688 L 307.988281 293.6875 L 306.9375 295.699219 L 309.171875 295.3125 L 310.757812 296.933594 L 311.082031 294.683594 L 313.109375 293.679688 Z M 309.503906 117.332031 L 307.59375 118.554688 L 309.71875 119.332031 L 310.289062 121.527344 L 311.6875 119.742188 L 313.949219 119.878906 L 312.683594 118 L 313.515625 115.886719 L 311.335938 116.511719 L 309.585938 115.066406 Z M 282.394531 379.761719 L 283.21875 381.878906 L 281.941406 383.753906 L 284.207031 383.625 L 285.597656 385.417969 L 286.175781 383.222656 L 288.308594 382.453125 L 286.402344 381.226562 L 286.332031 378.957031 L 284.574219 380.394531 Z M 367.679688 185.699219 L 365.859375 187.050781 L 368.039062 187.675781 L 368.757812 189.824219 L 370.023438 187.945312 L 372.292969 187.925781 L 370.894531 186.136719 L 371.578125 183.972656 L 369.449219 184.75 L 367.601562 183.429688 Z M 371.785156 210.011719 L 373.535156 211.453125 L 373.339844 213.714844 L 375.253906 212.496094 L 377.339844 213.378906 L 376.769531 211.183594 L 378.257812 209.46875 L 375.992188 209.332031 L 374.820312 207.386719 L 373.992188 209.5 Z M 366.855469 234.957031 L 365.152344 236.453125 L 367.378906 236.894531 L 368.277344 238.980469 L 369.386719 237 L 371.644531 236.789062 L 370.101562 235.121094 L 370.597656 232.910156 L 368.539062 233.863281 L 366.589844 232.703125 Z M 354.488281 256.050781 L 352.46875 257.082031 L 354.515625 258.058594 L 354.871094 260.300781 L 356.433594 258.65625 L 358.671875 259.011719 L 357.59375 257.015625 L 358.621094 254.992188 L 356.390625 255.40625 L 354.785156 253.800781 Z M 343.015625 256.867188 L 344.992188 257.980469 L 345.195312 260.242188 L 346.863281 258.707031 L 349.074219 259.214844 L 348.132812 257.148438 L 349.292969 255.199219 L 347.042969 255.460938 L 345.550781 253.75 L 345.101562 255.976562 Z M 322.464844 213.824219 L 320.902344 212.179688 L 320.550781 214.421875 L 318.503906 215.402344 L 320.523438 216.429688 L 320.824219 218.679688 L 322.425781 217.074219 L 324.65625 217.484375 L 323.625 215.464844 L 324.703125 213.46875 Z M 298.523438 249.90625 L 300.128906 251.511719 L 299.714844 253.742188 L 301.738281 252.710938 L 303.726562 253.796875 L 303.375 251.554688 L 305.019531 249.992188 L 302.78125 249.636719 L 301.804688 247.589844 L 300.773438 249.609375 Z M 298.1875 219.367188 L 295.960938 218.929688 L 296.96875 220.964844 L 295.859375 222.945312 L 298.105469 222.617188 L 299.648438 224.28125 L 300.03125 222.042969 L 302.085938 221.089844 L 300.078125 220.035156 L 299.808594 217.78125 Z M 279.597656 194.253906 L 281.382812 195.652344 L 281.242188 197.917969 L 283.125 196.648438 L 285.230469 197.484375 L 284.613281 195.300781 L 286.054688 193.550781 L 283.789062 193.46875 L 282.574219 191.554688 L 281.792969 193.683594 Z M 247.625 208.820312 L 249.375 210.261719 L 249.179688 212.523438 L 251.09375 211.308594 L 253.179688 212.191406 L 252.613281 209.996094 L 254.101562 208.285156 L 251.835938 208.144531 L 250.667969 206.195312 L 249.835938 208.308594 Z M 156.894531 175.53125 L 154.679688 175.050781 L 155.648438 177.105469 L 154.507812 179.066406 L 156.757812 178.777344 L 158.269531 180.46875 L 158.691406 178.242188 L 160.765625 177.324219 L 158.777344 176.234375 L 158.550781 173.976562 Z M 185.589844 153.359375 L 183.847656 151.90625 L 184.058594 149.644531 L 182.140625 150.851562 L 180.054688 149.957031 L 180.613281 152.15625 L 179.113281 153.859375 L 181.378906 154.011719 L 182.535156 155.964844 L 183.378906 153.855469 Z M 177.738281 203.492188 L 178.832031 201.503906 L 176.589844 201.847656 L 175.035156 200.195312 L 174.667969 202.4375 L 172.617188 203.402344 L 174.628906 204.445312 L 174.917969 206.695312 L 176.53125 205.097656 L 178.757812 205.519531 Z M 245.738281 148.042969 L 247.429688 149.558594 L 247.140625 151.808594 L 249.101562 150.667969 L 251.152344 151.640625 L 250.675781 149.421875 L 252.230469 147.769531 L 249.976562 147.539062 L 248.890625 145.546875 L 247.96875 147.621094 Z M 267.460938 150.023438 L 265.828125 151.597656 L 268.070312 151.9375 L 269.0625 153.976562 L 270.078125 151.945312 L 272.324219 151.632812 L 270.710938 150.039062 L 271.105469 147.808594 L 269.09375 148.851562 L 267.089844 147.785156 Z M 292.652344 158.179688 L 290.683594 159.308594 L 292.773438 160.1875 L 293.234375 162.410156 L 294.714844 160.691406 L 296.96875 160.9375 L 295.796875 159 L 296.730469 156.929688 L 294.523438 157.449219 L 292.84375 155.921875 Z M 318.980469 200.109375 L 317.089844 201.363281 L 319.234375 202.101562 L 319.84375 204.289062 L 321.210938 202.476562 L 323.472656 202.574219 L 322.171875 200.714844 L 322.964844 198.589844 L 320.796875 199.253906 L 319.019531 197.839844 Z M 343.445312 170.203125 L 344.011719 172.398438 L 342.527344 174.113281 L 344.792969 174.25 L 345.964844 176.195312 L 346.792969 174.082031 L 349.003906 173.570312 L 347.25 172.125 L 347.445312 169.867188 L 345.535156 171.085938 Z M 356.136719 83.390625 L 354.210938 84.589844 L 356.335938 85.386719 L 356.882812 87.589844 L 358.296875 85.816406 L 360.558594 85.976562 L 359.3125 84.082031 L 360.160156 81.976562 L 357.972656 82.578125 L 356.238281 81.121094 Z M 342.070312 91.929688 L 339.925781 92.664062 L 341.8125 93.921875 L 341.84375 96.1875 L 343.625 94.785156 L 345.792969 95.453125 L 345.003906 93.324219 L 346.3125 91.472656 L 344.046875 91.5625 L 342.6875 89.746094 Z M 303.503906 102.546875 L 304.09375 104.738281 L 302.625 106.464844 L 304.890625 106.578125 L 306.078125 108.511719 L 306.886719 106.390625 L 309.09375 105.859375 L 307.328125 104.433594 L 307.5 102.171875 L 305.601562 103.40625 Z M 283.433594 83.515625 L 285.644531 83.007812 L 283.894531 81.5625 L 284.09375 79.300781 L 282.179688 80.519531 L 280.09375 79.632812 L 280.65625 81.828125 L 279.167969 83.542969 L 281.433594 83.683594 L 282.601562 85.625 Z M 273.550781 108.542969 L 271.699219 107.234375 L 271.785156 109.5 L 269.964844 110.855469 L 272.148438 111.476562 L 272.875 113.625 L 274.136719 111.742188 L 276.40625 111.714844 L 275.003906 109.929688 L 275.679688 107.761719 Z M 236.457031 96.605469 L 234.21875 96.960938 L 235.859375 98.523438 L 235.503906 100.765625 L 237.496094 99.6875 L 239.515625 100.71875 L 239.105469 98.484375 L 240.710938 96.882812 L 238.464844 96.582031 L 237.433594 94.558594 Z M 227.871094 131.792969 L 225.796875 132.710938 L 227.785156 133.796875 L 228.015625 136.054688 L 229.667969 134.5 L 231.882812 134.976562 L 230.914062 132.925781 L 232.054688 130.960938 L 229.804688 131.253906 L 228.292969 129.5625 Z M 202.03125 81.414062 L 201.148438 79.324219 L 202.367188 77.410156 L 200.105469 77.605469 L 198.664062 75.851562 L 198.152344 78.0625 L 196.039062 78.894531 L 197.984375 80.066406 L 198.121094 82.332031 L 199.835938 80.84375 Z M 166.339844 134.597656 L 168.027344 133.085938 L 165.800781 132.660156 L 164.886719 130.582031 L 163.796875 132.570312 L 161.539062 132.800781 L 163.089844 134.457031 L 162.613281 136.671875 L 164.664062 135.707031 L 166.621094 136.847656 Z M 126.242188 89.71875 L 124.066406 90.355469 L 125.894531 91.695312 L 125.828125 93.964844 L 127.667969 92.636719 L 129.804688 93.398438 L 129.109375 91.238281 L 130.496094 89.441406 L 128.230469 89.4375 L 126.949219 87.5625 Z M 93.769531 110.765625 L 92.113281 112.316406 L 89.894531 111.832031 L 90.863281 113.886719 L 89.71875 115.84375 L 91.96875 115.5625 L 93.476562 117.257812 L 93.902344 115.027344 L 95.980469 114.117188 L 93.992188 113.023438 Z M 39.394531 90.367188 L 38.789062 88.179688 L 40.253906 86.441406 L 37.984375 86.335938 L 36.785156 84.414062 L 35.988281 86.535156 L 33.789062 87.085938 L 35.558594 88.5 L 35.398438 90.765625 L 37.292969 89.515625 Z M 20.335938 17.25 L 19.675781 15.082031 L 21.082031 13.304688 L 18.816406 13.269531 L 17.5625 11.378906 L 16.824219 13.523438 L 14.640625 14.128906 L 16.449219 15.496094 L 16.355469 17.765625 L 18.210938 16.460938 Z M 34.953125 25.253906 L 37.019531 24.316406 L 35.019531 23.25 L 34.765625 20.992188 L 33.132812 22.5625 L 30.910156 22.105469 L 31.898438 24.148438 L 30.777344 26.121094 L 33.023438 25.8125 L 34.550781 27.492188 Z M 56.472656 22.421875 L 54.792969 23.949219 L 57.027344 24.355469 L 57.953125 26.425781 L 59.027344 24.429688 L 61.285156 24.1875 L 59.722656 22.542969 L 60.1875 20.324219 L 58.140625 21.304688 L 56.171875 20.171875 Z M 100.027344 11.589844 L 97.839844 10.996094 L 98.699219 13.09375 L 97.457031 14.992188 L 99.71875 14.820312 L 101.140625 16.589844 L 101.675781 14.386719 L 103.796875 13.578125 L 101.871094 12.386719 L 101.753906 10.121094 Z M 112.84375 49.039062 L 114.617188 47.625 L 112.417969 47.078125 L 111.621094 44.953125 L 110.417969 46.878906 L 108.15625 46.976562 L 109.609375 48.71875 L 109.007812 50.90625 L 111.109375 50.050781 L 113 51.304688 Z M 133.5625 31.246094 L 134.796875 29.34375 L 132.535156 29.519531 L 131.105469 27.757812 L 130.578125 29.964844 L 128.460938 30.777344 L 130.394531 31.96875 L 130.515625 34.234375 L 132.242188 32.757812 L 134.429688 33.34375 Z M 155.378906 42.46875 L 153.90625 40.742188 L 153.433594 42.964844 L 151.34375 43.835938 L 153.308594 44.96875 L 153.492188 47.230469 L 155.175781 45.710938 L 157.378906 46.234375 L 156.453125 44.164062 L 157.636719 42.226562 Z M 160.765625 27.273438 L 158.90625 28.570312 L 161.066406 29.261719 L 161.722656 31.429688 L 163.046875 29.585938 L 165.3125 29.632812 L 163.96875 27.804688 L 164.714844 25.660156 L 162.5625 26.375 L 160.753906 25.003906 Z M 164.753906 55.125 L 166.855469 54.277344 L 164.898438 53.125 L 164.742188 50.863281 L 163.042969 52.363281 L 160.84375 51.816406 L 161.746094 53.894531 L 160.542969 55.820312 L 162.800781 55.601562 L 164.257812 57.34375 Z M 187.425781 73.601562 L 189.226562 74.980469 L 189.109375 77.246094 L 190.980469 75.960938 L 193.097656 76.769531 L 192.449219 74.597656 L 193.878906 72.828125 L 191.609375 72.769531 L 190.371094 70.871094 L 189.613281 73.007812 Z M 219.855469 21.644531 L 218.375 23.363281 L 220.640625 23.492188 L 221.816406 25.429688 L 222.640625 23.3125 L 224.84375 22.796875 L 223.089844 21.359375 L 223.277344 19.097656 L 221.371094 20.324219 L 219.277344 19.449219 Z M 247.023438 48.960938 L 244.949219 49.886719 L 246.941406 50.96875 L 247.179688 53.226562 L 248.824219 51.664062 L 251.042969 52.140625 L 250.070312 50.089844 L 251.203125 48.125 L 248.953125 48.421875 L 247.441406 46.730469 Z M 265.152344 38.441406 L 263.414062 39.902344 L 265.628906 40.394531 L 266.480469 42.496094 L 267.632812 40.542969 L 269.894531 40.382812 L 268.390625 38.683594 L 268.9375 36.484375 L 266.859375 37.386719 L 264.933594 36.183594 Z M 283.777344 22.140625 L 281.769531 21.082031 L 282.152344 23.316406 L 280.527344 24.898438 L 282.769531 25.226562 L 283.769531 27.265625 L 284.773438 25.230469 L 287.019531 24.90625 L 285.398438 23.320312 L 285.785156 21.085938 Z M 303.027344 76.046875 L 304.285156 77.933594 L 303.449219 80.039062 L 305.628906 79.425781 L 307.375 80.875 L 307.464844 78.605469 L 309.378906 77.394531 L 307.253906 76.609375 L 306.691406 74.410156 L 305.289062 76.191406 Z M 323.578125 26.5 L 324.699219 28.472656 L 323.710938 30.515625 L 325.929688 30.058594 L 327.5625 31.636719 L 327.816406 29.382812 L 329.816406 28.308594 L 327.753906 27.371094 L 327.359375 25.140625 L 325.828125 26.8125 Z M 335.832031 52.675781 L 336.953125 50.707031 L 337.835938 52.796875 L 340.054688 53.253906 L 338.34375 54.742188 L 338.59375 56.996094 L 336.652344 55.820312 L 334.585938 56.757812 L 335.101562 54.546875 L 333.570312 52.875 L 335.832031 52.675781 " fill-opacity="1" fill-rule="nonzero"/></svg>